<svg class="injected-svg partViewerSvgNqp" style="width:100%;height:90vh;" viewBox="-43.00 -55.50 286.00 286.00" preserveAspectRatio="xMidYMid meet" version="1.1" height="200px" width="200px" id="svgMain" xmlns:ip="http://www.iplaser.com/shapeMate" xmlns="http://www.w3.org/2000/svg"><defs xmlns="http://www.w3.org/2000/svg">
<marker id="ArrowEnd-2" viewBox="0 0 10 6" refX="10" refY="3" markerUnits="strokeWidth" markerWidth="10" markerHeight="10" orient="auto"> 
<path class="Dim" d="M 0 0 L 10 3 L 0 6 z"></path>  </marker>
<marker id="ArrowStart-2" viewBox="0 0 10 6" refX="0" refY="3" markerUnits="strokeWidth" markerWidth="10" markerHeight="10" orient="auto"> 
<path class="Dim" d="M 10 0 L 0 3 L 10 6 z"></path>  </marker>
<marker id="HoverArrowEnd-2" viewBox="0 0 10 6" refX="10" refY="3" markerUnits="strokeWidth" markerWidth="10" markerHeight="10" orient="auto"> 
<path class="Dim" d="M 0 0 L 10 3 L 0 6 z"></path>  </marker>
<marker id="HoverArrowStart-2" viewBox="0 0 10 6" refX="0" refY="3" markerUnits="strokeWidth" markerWidth="10" markerHeight="10" orient="auto"> 
<path class="Dim" d="M 10 0 L 0 3 L 10 6 z"></path>  </marker>
<marker id="SelectedArrowEnd" viewBox="0 0 10 6" refX="10" refY="3" markerUnits="strokeWidth" markerWidth="10" markerHeight="10" orient="auto"> 
<path class="Dim selectedDim" d="M 0 0 L 10 3 L 0 6 z"></path>  </marker>
<marker id="SelectedArrowStart" viewBox="0 0 10 6" refX="0" refY="3" markerUnits="strokeWidth" markerWidth="10" markerHeight="10" orient="auto"> 
<path class="Dim selectedDim" d="M 10 0 L 0 3 L 10 6 z"></path>  </marker>
</defs>
<g xmlns="http://www.w3.org/2000/svg" id="all" transform="translate(0,137.50) scale(1,-1) " stroke-width="0.25%" stroke="black" fill="none">
<path fill="#E9E9F0" d="M 0.00 0.00 L 50.00 0.00 A50.00,50.00 0  1,0 150.00,0.00  L 200.00 0.00 L 200.00 70.00 L 165.00 100.00 L 35.00 100.00 L 0.00 70.00 L 0.00 0.00 "></path>
<g id="engrave" fill="black" stroke="none">
</g>
<g font-size="13.0" fill="black">
<g id="dim_dx" class="Dim" xmlns:ip="http://www.iplaser.com/shapeMate" ip:index="0" fill="" stroke="" stroke-width="0.25%"><line x1="0.00" y1="0.00" x2="0.00" y2="-32.86"></line><line x1="200.00" y1="0.00" x2="200.00" y2="-32.86"></line><line class="arrowHeadStart arrowHeadEnd" x1="0.00" y1="-25.00" x2="200.00" y2="-25.00" marker-start="url(#ArrowStart-2)" marker-end="url(#ArrowEnd-2)"></line><text transform="rotate(0.0000,100.00,-25.00) scale(1,-1) translate(0,63.04)" text-anchor="middle" x="100.00" y="-25.00" dx="1.96" dy="-15.65">A</text>
</g>
<g id="dim_dy" class="Dim" xmlns:ip="http://www.iplaser.com/shapeMate" ip:index="1" fill="" stroke="" stroke-width="0.25%"><line x1="0.00" y1="0.00" x2="-32.86" y2="0.00"></line><line x1="35.00" y1="100.00" x2="-32.86" y2="100.00"></line><line class="arrowHeadStart arrowHeadEnd" x1="-25.00" y1="0.00" x2="-25.00" y2="100.00" marker-start="url(#ArrowStart-2)" marker-end="url(#ArrowEnd-2)"></line><text transform="rotate(90.0000,-25.00,50.00) scale(1,-1) translate(0,-86.96)" text-anchor="middle" x="-25.00" y="50.00" dx="1.96" dy="-15.65">B</text>
</g>
<g id="dim_ar" class="Dim" xmlns:ip="http://www.iplaser.com/shapeMate" ip:index="2" fill="" stroke="" stroke-width="0.25%"><line x1="64.64" y1="35.36" x2="100.00" y2="0.00"></line>
<line class="arrowHeadStart" x1="64.64" y1="35.36" x2="36.87" y2="63.13" marker-start="url(#ArrowStart-2)"></line>
<text transform="rotate(-45.0000,36.87,63.13) scale(1,-1) translate(0,-113.23)" text-anchor="start" x="36.87" y="63.13" dx="1.96" dy="-15.65">rC</text>
</g>
<g id="dim_dcx" class="Dim" xmlns:ip="http://www.iplaser.com/shapeMate" ip:index="3" fill="" stroke="" stroke-width="0.25%"><line x1="165.00" y1="100.00" x2="165.00" y2="132.86"></line><line x1="200.00" y1="70.00" x2="200.00" y2="132.86"></line><line class="arrowHeadStart arrowHeadEnd" x1="165.00" y1="125.00" x2="200.00" y2="125.00" marker-start="url(#ArrowStart-2)" marker-end="url(#ArrowEnd-2)"></line><text transform="rotate(0.0000,182.50,125.00) scale(1,-1) translate(0,-236.96)" text-anchor="middle" x="182.50" y="125.00" dx="1.96" dy="-15.65">D</text>
</g>
<g id="dim_dcy" class="Dim" xmlns:ip="http://www.iplaser.com/shapeMate" ip:index="4" fill="" stroke="" stroke-width="0.25%"><line x1="200.00" y1="70.00" x2="232.86" y2="70.00"></line><line x1="165.00" y1="100.00" x2="232.86" y2="100.00"></line><line class="arrowHeadStart arrowHeadEnd" x1="225.00" y1="70.00" x2="225.00" y2="100.00" marker-start="url(#ArrowStart-2)" marker-end="url(#ArrowEnd-2)"></line><text transform="rotate(90.0000,225.00,85.00) scale(1,-1) translate(0,-156.96)" text-anchor="middle" x="225.00" y="85.00" dx="1.96" dy="-15.65">E</text>
</g>
</g>
</g>
</svg>